# xmcd
#
# Track frame offsets:
#	150
#	16258
#	29723
#
# Disc length: 547 seconds
#
# Revision: 3
# Processed by: cddbd v1.5.1PL0 Copyright (c) Steve Scherf et al.
# Submitted via: dBpowerAMP V4.0
#
DISCID=1d022103
DTITLE=Buzzcocks - Innocent (scd)
DYEAR=1993
DGENRE=Punk
TTITLE0=Innocent
TTITLE1=Who'll Help Me To Forget?
TTITLE2=Inside
EXTD=cheers from hans kamp
EXTT0=
EXTT1=
EXTT2=
PLAYORDER=
